<?xml version="1.0" encoding="UTF-8"?>
<svg width="11px" height="10px" viewBox="0 0 11 10" version="1.1" xmlns="http://www.w3.org/2000/svg" xmlns:xlink="http://www.w3.org/1999/xlink">
    <!-- Generator: Sketch 59.1 (86144) - https://sketch.com -->
    <title>camera_alt-24px</title>
    <desc>Created with Sketch.</desc>
    <g id="Page-1" stroke="none" stroke-width="1" fill="none" fill-rule="evenodd">
        <g id="Desktop-Copy" transform="translate(-181.000000, -865.000000)">
            <g id="Group-14" transform="translate(180.000000, 399.000000)">
                <g id="Group-2" transform="translate(0.000000, 167.000000)">
                    <g id="Group">
                        <g id="Group-5" transform="translate(0.000000, 296.000000)">
                            <g id="camera_alt-24px" transform="translate(0.000000, 2.000000)">
                                <circle id="Oval" fill="#9A9A9A" fill-rule="nonzero" cx="6.5" cy="6.5" r="1.73333333"></circle>
                                <path d="M4.875,1.08333333 L3.88375,2.16666667 L2.16666667,2.16666667 C1.57083333,2.16666667 1.08333333,2.65416667 1.08333333,3.25 L1.08333333,9.75 C1.08333333,10.3458333 1.57083333,10.8333333 2.16666667,10.8333333 L10.8333333,10.8333333 C11.4291667,10.8333333 11.9166667,10.3458333 11.9166667,9.75 L11.9166667,3.25 C11.9166667,2.65416667 11.4291667,2.16666667 10.8333333,2.16666667 L9.11625,2.16666667 L8.125,1.08333333 L4.875,1.08333333 Z M6.5,9.20833333 C5.005,9.20833333 3.79166667,7.995 3.79166667,6.5 C3.79166667,5.005 5.005,3.79166667 6.5,3.79166667 C7.995,3.79166667 9.20833333,5.005 9.20833333,6.5 C9.20833333,7.995 7.995,9.20833333 6.5,9.20833333 Z" id="Shape" fill="#9A9A9A" fill-rule="nonzero"></path>
                                <polygon id="Path" points="0 0 13 0 13 13 0 13"></polygon>
                            </g>
                        </g>
                    </g>
                </g>
            </g>
        </g>
    </g>
</svg>